# xmcd CD database file
#
# Track frame offsets:
#	150
#	10170
#	26953
#	47162
#	68930
#	332550
#
# Disc length: 4440 seconds
#
# Revision: 0
# Processed by: cddbd v1.5.1PL0 Copyright (c) Steve Scherf et al.
# Submitted via: CDex 1.51
#
DISCID=4e115606
DTITLE=ORANGE RANGE - チェスト
DYEAR=2004
DGENRE=JPop
TTITLE0=チェスト
TTITLE1=修二君
TTITLE2=キリキリマイ　DISCO MIX
TTITLE3=チェスト LIVE MIX featuring Paul Gilbert
TTITLE4=LCD2 DATA
TTITLE5=LCD2 DATA
EXTD=YEAR: 2004
EXTT0=
EXTT1=
EXTT2=
EXTT3=
EXTT4=
EXTT5=
PLAYORDER=
